<svg xmlns="http://www.w3.org/2000/svg" xmlns:xlink="http://www.w3.org/1999/xlink" xmlns:inkscape="http://www.inkscape.org/namespaces/inkscape" version="1.1" width="680" height="405" viewBox="200 330 680 405">
<defs>
<clipPath id="clip_1">
<path transform="matrix(1,0,0,-1,0,1080)" d="M0 1080H1080V0H0Z"/>
</clipPath>
</defs>
<g inkscape:groupmode="layer" inkscape:label="Capa 1">
<path transform="matrix(1,0,0,-1,232.6392,588.6199)" d="M0 0H80.745V26.915H29.606V84.781H70.248V111.696H29.606V161.489H80.745V188.404H0Z" fill="#ffffff"/>
<path transform="matrix(1,0,0,-1,405.9683,561.7048)" d="M0 0H-48.716V161.489H-78.322V-26.915H0Z" fill="#ffffff"/>
<g clip-path="url(#clip_1)">
<path transform="matrix(1,0,0,-1,499.6274,397.52473)" d="M0 0C-14.177 0-24.988-4.037-32.433-12.112-39.88-20.186-43.602-31.583-43.602-46.293V-147.494C-43.602-162.208-39.88-173.6-32.433-181.675-24.988-189.75-14.177-193.787 0-193.787 14.173-193.787 24.985-189.75 32.433-181.675 39.876-173.6 43.603-162.208 43.603-147.494V-120.848H15.611V-149.646C15.611-161.131 10.674-166.872 .808-166.872-9.063-166.872-13.995-161.131-13.995-149.646V-44.41C-13.995-32.748-9.063-26.915 .808-26.915 10.674-26.915 15.611-32.748 15.611-44.41V-66.21H43.603V-46.293C43.603-31.583 39.876-20.186 32.433-12.112 24.985-4.037 14.173 0 0 0" fill="#ffffff"/>
<path transform="matrix(1,0,0,-1,587.9077,400.21614)" d="M0 0H-29.606V-188.404H48.716V-161.489H0Z" fill="#ffffff"/>
<path transform="matrix(1,0,0,-1,677.8003,526.178)" d="M0 0 12.92 93.126H13.458L26.646 0ZM-5.651 125.962-36.335-62.442H-8.882L-3.498-25.569H30.146V-25.03L35.528-62.442H65.135L34.451 125.962Z" fill="#ffffff"/>
<path transform="matrix(1,0,0,-1,820.9839,400.21614)" d="M0 0V-112.773H-.538L-29.337 0H-66.479V-188.404H-40.103V-50.869H-39.564L-4.037-188.404H26.377V0Z" fill="#ffffff"/>
<path transform="matrix(1,0,0,-1,377.7896,650.948)" d="M0 0C-.859-1.525-2.074-2.693-3.646-3.503-5.219-4.314-7.078-4.719-9.223-4.719H-21.234V15.299H-9.223C-7.078 15.299-5.219 14.894-3.646 14.084-2.074 13.272-.859 12.118 0 10.616 .857 9.115 1.285 7.339 1.285 5.29 1.285 3.289 .857 1.524 0 0M-.145 19.731C-2.814 21.065-5.91 21.733-9.438 21.733H-28.24V-31.527H-21.234V-11.152H-9.438C-5.863-11.152-2.754-10.474-.107-9.115 2.537-7.757 4.611-5.851 6.111-3.396 7.613-.941 8.363 1.954 8.363 5.29 8.363 8.626 7.613 11.533 6.111 14.013 4.611 16.49 2.525 18.396-.145 19.731" fill="#ffffff"/>
<path transform="matrix(1,0,0,-1,405.6704,663.53)" d="M0 0 9.149 26.356 18.301 0ZM5.004 34.315-14.084-18.945H-6.578L-2.217-6.435H20.518L24.879-18.945H32.385L13.297 34.315Z" fill="#ffffff"/>
<path transform="matrix(1,0,0,-1,478.3755,650.948)" d="M0 0C-.857-1.525-2.072-2.693-3.646-3.503-5.219-4.314-7.078-4.719-9.223-4.719H-21.232V15.299H-9.223C-7.078 15.299-5.219 14.894-3.646 14.084-2.072 13.272-.857 12.118 0 10.616 .857 9.115 1.287 7.339 1.287 5.29 1.287 3.289 .857 1.524 0 0M-.143 19.731C-2.813 21.065-5.91 21.733-9.438 21.733H-28.238V-31.527H-21.232V-11.152H-9.438C-5.861-11.152-2.752-10.474-.107-9.115 2.539-7.757 4.611-5.851 6.113-3.396 7.613-.941 8.365 1.954 8.365 5.29 8.365 8.626 7.613 11.533 6.113 14.013 4.611 16.49 2.525 18.396-.143 19.731" fill="#ffffff"/>
<path transform="matrix(1,0,0,-1,501.6099,682.47537)" d="M0 0H34.672V6.435H7.006V23.521H33.242V29.955H7.006V46.826H34.672V53.261H0Z" fill="#ffffff"/>
<path transform="matrix(1,0,0,-1,557.2993,629.2146)" d="M0 0H-7.006V-53.261H23.377V-46.826H0Z" fill="#ffffff"/>
<path transform="matrix(1,0,0,-1,593.9009,682.47537)" d="M0 0H34.674V6.435H7.006V23.521H33.244V29.955H7.006V46.826H34.674V53.261H0Z" fill="#ffffff"/>
<path transform="matrix(1,0,0,-1,661.6021,655.6667)" d="M0 0H-12.01V20.018H0C2.098 20.018 3.932 19.612 5.506 18.803 7.078 17.991 8.305 16.837 9.188 15.335 10.068 13.834 10.51 12.058 10.51 10.009 10.51 8.008 10.068 6.243 9.188 4.719 8.305 3.193 7.078 2.025 5.506 1.216 3.932 .404 2.098 0 0 0M14.729 .43C16.633 3.05 17.588 6.243 17.588 10.009 17.588 13.345 16.836 16.252 15.336 18.731 13.834 21.209 11.748 23.115 9.08 24.45 6.41 25.784 3.313 26.452-.215 26.452H-19.016V-26.809H-12.01V-6.434H-.256L11.225-26.809H19.375L7.006-5.219C10.248-4.074 12.82-2.192 14.729 .43" fill="#ffffff"/>
<path transform="matrix(1,0,0,-1,703.2095,663.53)" d="M0 0 9.151 26.356 18.303 0ZM5.004 34.315-14.084-18.945H-6.576L-2.215-6.435H20.518L24.879-18.945H32.385L13.297 34.315Z" fill="#ffffff"/>
</g>
</g>
</svg>
