<svg xmlns="http://www.w3.org/2000/svg" xmlns:xlink="http://www.w3.org/1999/xlink" xmlns:inkscape="http://www.inkscape.org/namespaces/inkscape" version="1.1" width="512" height="512" viewBox="270 270 540 540">
<defs>
<clipPath id="clip_1">
<path transform="matrix(1,0,0,-1,0,1080)" d="M0 1080H1080V0H0Z"/>
</clipPath>
</defs>
<rect x="270" y="270" width="540" height="540" fill="#1a2342"/>
<g inkscape:groupmode="layer" inkscape:label="Capa 1">
<g clip-path="url(#clip_1)" stroke="#ffffff" stroke-width="0.5" stroke-linejoin="round">
<path transform="matrix(1,0,0,-1,550.1876,464.49378)" d="M0 0C0 25.964 10.982 38.949 32.956 38.949 54.922 38.949 65.914 25.964 65.914 0V-48.536H128.233V-4.194C128.233 28.557 119.936 53.93 103.365 71.906 86.784 89.884 62.712 98.872 31.158 98.872-.404 98.872-24.475 89.884-41.048 71.906-57.629 53.93-65.914 28.557-65.914-4.194V-169.072H0Z" fill="#ffffff"/>
<path transform="matrix(1,0,0,-1,509.1392,770.097)" d="M0 0C16.574-17.976 40.644-26.964 72.207-26.964 103.76-26.964 127.833-17.976 144.413 0 160.985 17.978 169.281 43.342 169.281 76.103V135.425H106.963V71.309C106.963 45.738 95.97 32.958 74.005 32.958 55.973 32.958 45.357 41.581 42.124 58.798H-24.021C-21.536 34.275-13.534 14.675 0 0" fill="#ffffff"/>
<path transform="matrix(1,0,0,-1,559.186,702.3939)" d="M0 0H22.161V59.922H-.093V3.605C-.093 2.346-.056 1.156 0 0" fill="#ffffff"/>
<path transform="matrix(1,0,0,-1,475.3677,642.47146)" d="M0 0H-7.874V121.417 128.833 188.754 210.093 299.61H105.979V359.533H-73.788V-59.922H.207C.084-57.165 0-54.378 0-51.523Z" fill="#ffffff"/>
<path transform="matrix(1,0,0,-1,484.2732,693.9944)" d="M0 0C0-2.863 .086-5.649 .213-8.4H66.014C65.963-7.219 65.914-6.035 65.914-4.794V51.523H0Z" fill="#ffffff"/>
<path transform="matrix(1,0,0,-1,479.8204,642.47146)" d="M0 0H-4.453V-51.523C-4.453-54.378-4.369-57.165-4.246-59.922H.211C.086-57.168 0-54.381 0-51.524Z" fill="#ffffff"/>
<path transform="matrix(1,0,0,-1,554.7317,702.3939)" d="M0 0H4.454C4.398 1.156 4.361 2.346 4.361 3.605V59.922H-.091V3.605C-.091 2.362-.052 1.172 0 0" fill="#ffffff"/>
<path transform="matrix(1,0,0,-1,550.2877,702.3939)" d="M0 0H4.444C4.392 1.172 4.353 2.362 4.353 3.605V59.922H-.1V3.605C-.1 2.365-.052 1.18 0 0" fill="#ffffff"/>
<path transform="matrix(1,0,0,-1,484.2732,642.47146)" d="M0 0H-4.453V-51.524C-4.453-54.381-4.367-57.168-4.241-59.922H.213C.086-57.172 0-54.386 0-51.523Z" fill="#ffffff"/>
</g>
</g>
</svg>
